<?xml version="1.0" encoding="UTF-8"?>
<svg width="1100" height="480" viewBox="0 0 1100 480" xmlns="http://www.w3.org/2000/svg">
<defs>
  <marker id="arr" viewBox="0 0 10 10" refX="8" refY="5" markerWidth="7" markerHeight="7" orient="auto-start-reverse">
    <path d="M2 1L8 5L2 9" fill="none" stroke="#C0392B" stroke-width="1.5" stroke-linecap="round" stroke-linejoin="round"/>
  </marker>
</defs>

<rect width="1100" height="480" fill="white"/>

<!-- Fond stations -->
<rect x="140" y="44" width="780" height="376" rx="5" fill="#f5f4f0" stroke="#aaa" stroke-width="1.2"/>
<!-- Allée -->
<rect x="140" y="170" width="780" height="130" fill="#1A5CB8" opacity="0.75"/>
<!-- Grille -->
<line x1="270" y1="44" x2="270" y2="420" stroke="#ccc" stroke-width="0.5"/>
<line x1="400" y1="44" x2="400" y2="420" stroke="#ccc" stroke-width="0.5"/>
<line x1="530" y1="44" x2="530" y2="420" stroke="#ccc" stroke-width="0.5"/>
<line x1="660" y1="44" x2="660" y2="420" stroke="#ccc" stroke-width="0.5"/>
<line x1="790" y1="44" x2="790" y2="420" stroke="#ccc" stroke-width="0.5"/>
<line x1="140" y1="170" x2="920" y2="170" stroke="#ccc" stroke-width="0.5"/>
<line x1="140" y1="300" x2="920" y2="300" stroke="#ccc" stroke-width="0.5"/>

<!-- TABLEAUX haut -->
<rect x="155" y="50" width="100" height="12" rx="2" fill="#E8A0B0" stroke="#C0607A" stroke-width="0.7"/>
<rect x="285" y="50" width="100" height="12" rx="2" fill="#E8A0B0" stroke="#C0607A" stroke-width="0.7"/>
<rect x="415" y="50" width="100" height="12" rx="2" fill="#E8A0B0" stroke="#C0607A" stroke-width="0.7"/>
<rect x="545" y="50" width="100" height="12" rx="2" fill="#E8A0B0" stroke="#C0607A" stroke-width="0.7"/>
<rect x="675" y="50" width="100" height="12" rx="2" fill="#E8A0B0" stroke="#C0607A" stroke-width="0.7"/>
<rect x="805" y="50" width="100" height="12" rx="2" fill="#E8A0B0" stroke="#C0607A" stroke-width="0.7"/>
<!-- TABLEAUX bas -->
<rect x="155" y="408" width="100" height="12" rx="2" fill="#E8A0B0" stroke="#C0607A" stroke-width="0.7"/>
<rect x="285" y="408" width="100" height="12" rx="2" fill="#E8A0B0" stroke="#C0607A" stroke-width="0.7"/>
<rect x="415" y="408" width="100" height="12" rx="2" fill="#E8A0B0" stroke="#C0607A" stroke-width="0.7"/>
<rect x="545" y="408" width="100" height="12" rx="2" fill="#E8A0B0" stroke="#C0607A" stroke-width="0.7"/>
<rect x="675" y="408" width="100" height="12" rx="2" fill="#E8A0B0" stroke="#C0607A" stroke-width="0.7"/>
<rect x="805" y="408" width="100" height="12" rx="2" fill="#E8A0B0" stroke="#C0607A" stroke-width="0.7"/>

<!-- CLOISONS T1..T6 -->
<line x1="140" y1="170" x2="205" y2="300" stroke="#111" stroke-width="5" stroke-linecap="round"/>
<line x1="270" y1="300" x2="205" y2="170" stroke="#111" stroke-width="5" stroke-linecap="round"/>
<line x1="270" y1="170" x2="335" y2="300" stroke="#111" stroke-width="5" stroke-linecap="round"/>
<line x1="400" y1="300" x2="335" y2="170" stroke="#111" stroke-width="5" stroke-linecap="round"/>
<line x1="400" y1="170" x2="465" y2="300" stroke="#111" stroke-width="5" stroke-linecap="round"/>
<line x1="530" y1="300" x2="465" y2="170" stroke="#111" stroke-width="5" stroke-linecap="round"/>
<line x1="530" y1="170" x2="595" y2="300" stroke="#111" stroke-width="5" stroke-linecap="round"/>
<line x1="660" y1="300" x2="595" y2="170" stroke="#111" stroke-width="5" stroke-linecap="round"/>
<line x1="660" y1="170" x2="725" y2="300" stroke="#111" stroke-width="5" stroke-linecap="round"/>
<line x1="790" y1="300" x2="725" y2="170" stroke="#111" stroke-width="5" stroke-linecap="round"/>
<line x1="790" y1="170" x2="855" y2="300" stroke="#111" stroke-width="5" stroke-linecap="round"/>
<line x1="920" y1="300" x2="855" y2="170" stroke="#111" stroke-width="5" stroke-linecap="round"/>

<!-- FLÈCHES -->
<line x1="68" y1="235" x2="140" y2="235" stroke="#C0392B" stroke-width="2.2" marker-end="url(#arr)"/>
<line x1="140" y1="235" x2="205" y2="360" stroke="#C0392B" stroke-width="1.8"/>
<line x1="205" y1="360" x2="237.5" y2="300" stroke="#C0392B" stroke-width="1.8"/>
<line x1="237.5" y1="300" x2="172.5" y2="170" stroke="#C0392B" stroke-width="1.8" marker-end="url(#arr)"/>
<line x1="172.5" y1="170" x2="205" y2="107" stroke="#C0392B" stroke-width="1.8"/>
<line x1="205" y1="107" x2="335" y2="360" stroke="#C0392B" stroke-width="1.8" marker-end="url(#arr)"/>
<line x1="335" y1="360" x2="367.5" y2="300" stroke="#C0392B" stroke-width="1.8"/>
<line x1="367.5" y1="300" x2="302.5" y2="170" stroke="#C0392B" stroke-width="1.8" marker-end="url(#arr)"/>
<line x1="302.5" y1="170" x2="335" y2="107" stroke="#C0392B" stroke-width="1.8"/>
<line x1="335" y1="107" x2="465" y2="360" stroke="#C0392B" stroke-width="1.8" marker-end="url(#arr)"/>
<line x1="465" y1="360" x2="497.5" y2="300" stroke="#C0392B" stroke-width="1.8"/>
<line x1="497.5" y1="300" x2="432.5" y2="170" stroke="#C0392B" stroke-width="1.8" marker-end="url(#arr)"/>
<line x1="432.5" y1="170" x2="465" y2="107" stroke="#C0392B" stroke-width="1.8"/>
<line x1="465" y1="107" x2="595" y2="360" stroke="#C0392B" stroke-width="1.8" marker-end="url(#arr)"/>
<line x1="595" y1="360" x2="627.5" y2="300" stroke="#C0392B" stroke-width="1.8"/>
<line x1="627.5" y1="300" x2="562.5" y2="170" stroke="#C0392B" stroke-width="1.8" marker-end="url(#arr)"/>
<line x1="562.5" y1="170" x2="595" y2="107" stroke="#C0392B" stroke-width="1.8"/>
<line x1="595" y1="107" x2="725" y2="360" stroke="#C0392B" stroke-width="1.8" marker-end="url(#arr)"/>
<line x1="725" y1="360" x2="757.5" y2="300" stroke="#C0392B" stroke-width="1.8"/>
<line x1="757.5" y1="300" x2="692.5" y2="170" stroke="#C0392B" stroke-width="1.8" marker-end="url(#arr)"/>
<line x1="692.5" y1="170" x2="725" y2="107" stroke="#C0392B" stroke-width="1.8"/>
<line x1="725" y1="107" x2="855" y2="360" stroke="#C0392B" stroke-width="1.8" marker-end="url(#arr)"/>
<line x1="855" y1="360" x2="887.5" y2="300" stroke="#C0392B" stroke-width="1.8"/>
<line x1="887.5" y1="300" x2="822.5" y2="170" stroke="#C0392B" stroke-width="1.8" marker-end="url(#arr)"/>
<line x1="822.5" y1="170" x2="855" y2="107" stroke="#C0392B" stroke-width="1.8"/>
<line x1="855" y1="107" x2="920" y2="235" stroke="#C0392B" stroke-width="1.8"/>
<line x1="920" y1="235" x2="990" y2="235" stroke="#C0392B" stroke-width="2.2" marker-end="url(#arr)"/>

<!-- NUMÉROS et NOMS rangée haute -->
<text x="205" y="156" text-anchor="middle" font-family="Helvetica, Arial, sans-serif" font-size="18" font-weight="bold" fill="#888">2</text>
<text x="205" y="88" text-anchor="middle" font-family="Helvetica, Arial, sans-serif" font-size="13" fill="#444">Judith Naples</text>
<text x="335" y="156" text-anchor="middle" font-family="Helvetica, Arial, sans-serif" font-size="18" font-weight="bold" fill="#888">4</text>
<text x="335" y="88" text-anchor="middle" font-family="Helvetica, Arial, sans-serif" font-size="13" fill="#444">Joueuse de luth</text>
<text x="465" y="156" text-anchor="middle" font-family="Helvetica, Arial, sans-serif" font-size="18" font-weight="bold" fill="#888">6</text>
<text x="465" y="82" text-anchor="middle" font-family="Helvetica, Arial, sans-serif" font-size="13" fill="#444">Judith et sa</text>
<text x="465" y="98" text-anchor="middle" font-family="Helvetica, Arial, sans-serif" font-size="13" fill="#444">servante</text>
<text x="595" y="156" text-anchor="middle" font-family="Helvetica, Arial, sans-serif" font-size="18" font-weight="bold" fill="#888">8</text>
<text x="595" y="82" text-anchor="middle" font-family="Helvetica, Arial, sans-serif" font-size="13" fill="#444">Vénus</text>
<text x="595" y="98" text-anchor="middle" font-family="Helvetica, Arial, sans-serif" font-size="13" fill="#444">et Cupidon</text>
<text x="725" y="156" text-anchor="middle" font-family="Helvetica, Arial, sans-serif" font-size="18" font-weight="bold" fill="#888">10</text>
<text x="725" y="88" text-anchor="middle" font-family="Helvetica, Arial, sans-serif" font-size="13" fill="#444">Esther</text>
<text x="855" y="156" text-anchor="middle" font-family="Helvetica, Arial, sans-serif" font-size="18" font-weight="bold" fill="#888">12</text>
<text x="855" y="82" text-anchor="middle" font-family="Helvetica, Arial, sans-serif" font-size="13" fill="#444">Allégorie</text>
<text x="855" y="98" text-anchor="middle" font-family="Helvetica, Arial, sans-serif" font-size="13" fill="#444">Peinture</text>

<!-- NUMÉROS et NOMS rangée basse -->
<text x="205" y="318" text-anchor="middle" font-family="Helvetica, Arial, sans-serif" font-size="18" font-weight="bold" fill="#888">1</text>
<text x="205" y="388" text-anchor="middle" font-family="Helvetica, Arial, sans-serif" font-size="13" fill="#444">Suzanne</text>
<text x="335" y="318" text-anchor="middle" font-family="Helvetica, Arial, sans-serif" font-size="18" font-weight="bold" fill="#888">3</text>
<text x="335" y="388" text-anchor="middle" font-family="Helvetica, Arial, sans-serif" font-size="13" fill="#444">L'Inclination</text>
<text x="465" y="318" text-anchor="middle" font-family="Helvetica, Arial, sans-serif" font-size="18" font-weight="bold" fill="#888">5</text>
<text x="465" y="388" text-anchor="middle" font-family="Helvetica, Arial, sans-serif" font-size="13" fill="#444">Judith Florence</text>
<text x="595" y="318" text-anchor="middle" font-family="Helvetica, Arial, sans-serif" font-size="18" font-weight="bold" fill="#888">7</text>
<text x="595" y="382" text-anchor="middle" font-family="Helvetica, Arial, sans-serif" font-size="13" fill="#444">Marie-</text>
<text x="595" y="398" text-anchor="middle" font-family="Helvetica, Arial, sans-serif" font-size="13" fill="#444">Madeleine</text>
<text x="725" y="318" text-anchor="middle" font-family="Helvetica, Arial, sans-serif" font-size="18" font-weight="bold" fill="#888">9</text>
<text x="725" y="382" text-anchor="middle" font-family="Helvetica, Arial, sans-serif" font-size="13" fill="#444">Lucrèce</text>
<text x="725" y="398" text-anchor="middle" font-family="Helvetica, Arial, sans-serif" font-size="13" fill="#444">Getty</text>
<text x="855" y="318" text-anchor="middle" font-family="Helvetica, Arial, sans-serif" font-size="18" font-weight="bold" fill="#888">11</text>
<text x="855" y="388" text-anchor="middle" font-family="Helvetica, Arial, sans-serif" font-size="13" fill="#444">Saint-Jean</text>

<!-- Entrée / Sortie -->
<rect x="18" y="220" width="52" height="28" rx="3" fill="white" stroke="#aaa" stroke-width="0.8"/>
<text x="44" y="236" text-anchor="middle" dominant-baseline="central" font-family="Helvetica, Arial, sans-serif" font-size="12" fill="#333">Entrée</text>
<rect x="990" y="220" width="52" height="28" rx="3" fill="white" stroke="#aaa" stroke-width="0.8"/>
<text x="1016" y="236" text-anchor="middle" dominant-baseline="central" font-family="Helvetica, Arial, sans-serif" font-size="12" fill="#333">Sortie</text>

<!-- Légende -->
<rect x="140" y="446" width="16" height="11" rx="1" fill="#E8A0B0" stroke="#C0607A" stroke-width="0.7"/>
<text x="162" y="453" dominant-baseline="central" font-family="Helvetica, Arial, sans-serif" font-size="11" fill="#555">tableau</text>
<rect x="230" y="449" width="22" height="5" rx="1" fill="#111"/>
<text x="258" y="453" dominant-baseline="central" font-family="Helvetica, Arial, sans-serif" font-size="11" fill="#555">cloison guidage</text>
<line x1="380" y1="451" x2="408" y2="451" stroke="#C0392B" stroke-width="2" marker-end="url(#arr)"/>
<text x="415" y="453" dominant-baseline="central" font-family="Helvetica, Arial, sans-serif" font-size="11" fill="#555">circulation visiteur</text>

</svg>
